<?xml version="1.0" encoding="utf-8"?>
<!-- Svg Vector Icons : http://www.onlinewebfonts.com/icon -->
<svg version="1.1" xmlns="http://www.w3.org/2000/svg" xmlns:xlink="http://www.w3.org/1999/xlink" x="0px" y="0px" viewBox="0 0 1000 1000" enable-background="new 0 0 1000 1000" xml:space="preserve" fill="#fff">
<g><path d="M957.6,281.2c0-29.1-4.8-33.9-33.9-33.9c-95.3,0-190.6,0-285.1,0h-25.8c27.5-40.4,52.5-76.7,76.7-113.1c17.8-25.8,35.5-52.5,53.3-78.3c9.7-13.7,12.1-28.3-2.4-40.4C727.4,5,712.8,9.8,700.7,27.6c-1.6,2.4-3.2,4.8-4.8,6.5c-43.6,64.6-88,129.2-131.7,193c-14.5,21-54.1,28.3-75.9,15.3C401.9,194.8,315.4,148,229,101.1c-14.5-8.1-29.1-7.3-37.2,8.9c-8.1,15.3-2.4,28.3,12.9,36.3c37.2,20.2,73.5,40.4,110.7,60.6c22.6,12.1,44.4,24.2,67,36.3c-0.8,1.6-1.6,3.2-1.6,4.8h-20.2c-96.1,0-191.4,0-287.5,0c-23.4,0-31.5,7.3-31.5,28.3C40.8,478.3,40.8,681,40.8,883c0,20.2,8.9,28.3,29.1,29.1c18.6,0,37.2,0.8,55.7,0c14.5-0.8,21,2.4,25.8,18.6c9.7,37.2,39.6,59,72.7,59c32.3-0.8,62.2-23.4,71.1-59c4-17,12.1-17.8,25.8-17.8c119.5,0,238.3,0.8,357.8,0c17,0,26.7,2.4,31.5,21.8c8.9,31.5,30.7,51.7,64.6,54.9c29.1,3.2,62.2-12.1,70.3-42.8c9.7-33.9,29.9-36.3,57.3-33.1c7.3,0.8,15.3,0,22.6,0c29.1,0,33.9-4.8,33.9-33.1C957.6,679.4,957.6,479.9,957.6,281.2z M220.1,941.1c-15.3-0.8-22.6-12.1-26.7-28.3H250C245.2,929.8,237.1,942.7,220.1,941.1z M781.5,941.1c-17,0.8-25-11.3-30.7-29.1h57.3C803.3,928.2,796,940.3,781.5,941.1z M911.5,864.4h-823v-571h823V864.4z M170.1,824.8c110.7,0,220.5,0,331.2,0s220.5,0,331.2,0c30.7,0,37.2-5.7,37.2-35.5c0-138.9-0.8-277.8-0.8-416.8c0-29.1-6.5-34.7-35.5-34.7c-221.3,0-442.6,0-663.9,0c-29.1,0-34.7,5.7-34.7,35.5c0,138.1-0.8,276.2-0.8,415.2C132.9,820,137.7,824.8,170.1,824.8z M182.2,387h636.5v389.3H182.2V387z M632.9,611.6c-15.3-0.8-24.2,8.1-26.7,22.6c-1.6,9.7-1.6,21-6.5,27.5c-8.1,9.7-21,22.6-31.5,21.8c-11.3,0-24.2-12.1-33.1-22.6c-5.7-6.5-5.7-17.8-7.3-27.5c-1.6-14.5-10.5-23.4-24.2-23.4c-14.5,0-23.4,8.9-25.8,24.2c-0.8,8.1,0,18.6-4.8,23.4c-9.7,10.5-21,23.4-33.9,25.8c-17,4-28.3-11.3-34.7-26.7c-3.2-8.1-1.6-19.4-5.7-25.8c-5.7-8.9-16.2-19.4-24.2-19.4c-8.1,0-22.6,12.1-23.4,20.2c-2.4,35.5,10.5,66.2,40.4,87.2c27.5,19.4,56.5,20.2,85.6,4.8c8.9-4.8,17-11.3,25-17.8c1.6,1.6,4,2.4,4.8,3.2c27.5,25,59.8,32.3,93.7,16.2c36.3-17.8,51.7-49.3,53.3-88.8C656.3,622.1,648.2,612.4,632.9,611.6z M764.5,545.3c-46.8-29.1-93.7-57.3-141.3-84.8c-12.1-7.3-25-3.2-32.3,9.7c-7.3,12.1-4.8,25,8.1,32.3c46,28.3,92.1,56.5,139.7,83.2c17.8,9.7,36.3-2.4,36.3-25.8C773.4,557.5,770.2,548.6,764.5,545.3z M389.7,488c-0.8-7.3-12.1-13.7-17-17.8c-7.3,0.8-9.7,0.8-11.3,1.6c-42.8,19.4-86.4,38-128.4,59.8c-6.5,3.2-10.5,20.2-8.1,29.9c3.2,13.7,17,17.8,29.9,12.1c42-18.6,84-37.2,125.2-58.2C386.5,512.2,391.4,496.9,389.7,488z"/></g>
</svg>